#!OML:ASF F:\VICON\USERDATA\INSTALL\rory3\rory3.ASF
:FULLY-SPECIFIED
:DEGREES
456
root -8.42631 17.689 12.9531 -37.0694 -94.7108 36.399
lowerback 10.7881 2.48942 3.06099
upperback 0.551036 3.67804 0.560801
thorax -5.31265 1.72781 -1.68573
lowerneck -22.7074 -6.28172 -11.1545
upperneck 26.2894 -7.53102 7.75502
head 13.3973 -3.48172 3.51207
rclavicle -2.58529e-014 -8.17502e-015
rhumerus -25.8064 -7.47263 -83.2517
rradius 36.7852
rwrist 2.22846
rhand -16.4616 10.4957
rfingers 7.12502
rthumb 9.7548 -19.2584
lclavicle -2.58529e-014 -8.17502e-015
lhumerus -36.8519 7.4543 83.6902
lradius 27.4989
lwrist -9.45405
lhand -14.5427 24.6436
lfingers 7.12502
lthumb 11.6058 54.3022
rfemur 14.5698 2.99188 27.1434
rtibia 17.2415
rfoot -13.7492 -4.09571
rtoes -3.54288
lfemur -20.3259 -1.58338 -16.7645
ltibia 16.081
lfoot 1.26665 -0.379908
ltoes -12.8893
457
root -8.57941 17.7031 12.9641 -32.8796 -94.6086 32.1026
lowerback 10.8338 2.57521 2.65439
upperback 0.555418 3.73941 0.462408
thorax -5.3498 1.76654 -1.57268
lowerneck -22.5715 -6.29531 -11.0919
upperneck 26.2966 -7.57337 7.68809
head 13.3711 -3.50718 3.46822
rclavicle 4.18954e-014 -5.31128e-015
rhumerus -26.0754 -7.93906 -83.2477
rradius 36.8096
rwrist 2.41114
rhand -16.3308 10.7093
rfingers 7.12502
rthumb 9.88102 -19.0388
lclavicle 4.18954e-014 -5.31128e-015
lhumerus -36.7669 7.79212 83.5205
lradius 27.2481
lwrist -10.2374
lhand -13.1661 23.3057
lfingers 7.12502
lthumb 12.9331 52.8849
rfemur 14.5564 3.41591 26.8642
rtibia 18.4507
rfoot -13.2446 -4.41069
rtoes -4.67077
lfemur -19.7695 -1.71947 -17.1788
ltibia 16.0714
lfoot 2.04541 -0.623497
ltoes -10.3571
458
root -8.73536 17.719 12.9765 -26.4257 -94.4954 25.5687
lowerback 10.7958 2.67317 2.09689
upperback 0.573908 3.79346 0.32356
thorax -5.33325 1.80624 -1.41156
lowerneck -22.4953 -6.31544 -11.3164
upperneck 26.394 -7.64192 7.99617
head 13.4303 -3.52428 3.61923
rclavicle -5.33981e-015 5.41688e-015
rhumerus -26.2959 -8.40947 -83.2581
rradius 36.7125
rwrist 2.69543
rhand -16.4361 10.7768
rfingers 7.12502
rthumb 9.77942 -18.9762
lclavicle -5.33981e-015 5.41688e-015
lhumerus -36.6857 7.84282 83.5458
lradius 27.1057
lwrist -10.2829
lhand -14.164 24.1838
lfingers 7.12502
lthumb 11.971 53.8215
rfemur 14.368 3.92277 26.4204
rtibia 19.9532
rfoot -12.7546 -4.80723
rtoes -4.78573
lfemur -19.172 -1.48437 -17.8456
ltibia 15.9232
lfoot 2.58362 -1.32359
ltoes -7.84634
459
root -8.89558 17.733 12.9891 -18.9333 -94.3141 18.0293
lowerback 10.6287 2.73535 1.50022
upperback 0.620057 3.78854 0.104042
thorax -5.21497 1.81852 -1.29565
lowerneck -22.4647 -6.31584 -11.3615
upperneck 26.4803 -7.702 8.18034
head 13.4787 -3.53421 3.69161
rclavicle -4.04558e-015 -1.62755e-015
rhumerus -26.5163 -8.83373 -83.395
rradius 36.6287
rwrist 2.66761
rhand -16.5706 10.6627
rfingers 7.12502
rthumb 9.64969 -19.0963
lclavicle -4.04558e-015 -1.62755e-015
lhumerus -36.4393 7.70985 83.5207
lradius 26.7904
lwrist -9.9078
lhand -15.1384 24.4365
lfingers 7.12502
lthumb 11.0313 54.1267
rfemur 14.0015 3.91671 25.7174
rtibia 21.6783
rfoot -12.1224 -4.92061
rtoes -5.89648
lfemur -18.5606 -0.936498 -18.6888
ltibia 15.7078
lfoot 3.12169 -2.28511
ltoes -4.43628
460
root -9.05716 17.7528 13.0019 -12.0672 -94.2321 11.1681
lowerback 10.4123 2.79384 0.994889
upperback 0.645163 3.79253 -0.108798
thorax -5.08575 1.83242 -1.22268
lowerneck -22.3628 -6.30519 -11.2843
upperneck 26.4409 -7.75337 8.2598
head 13.4476 -3.54141 3.70098
rclavicle -1.56108e-014 -3.37934e-015
rhumerus -26.7884 -9.20349 -83.5629
rradius 36.5095
rwrist 2.6001
rhand -16.788 10.4537
rfingers 7.12502
rthumb 9.43987 -19.3149
lclavicle -1.56108e-014 -3.37934e-015
lhumerus -36.1941 8.07095 83.1733
lradius 26.4321
lwrist -10.4731
lhand -15.0918 24.369
lfingers 7.12502
lthumb 11.0762 54.0567
rfemur 13.427 3.73089 25.0042
rtibia 23.5843
rfoot -11.3202 -4.69775
rtoes -6.07511
lfemur -17.9553 -0.474504 -19.4359
ltibia 15.5108
lfoot 3.43903 -2.82654
ltoes -2.43437
461
root -9.21623 17.7725 13.0161 -9.75753 -94.2608 8.8644
lowerback 10.2747 2.77504 0.804581
upperback 0.612832 3.74237 -0.174052
thorax -5.05176 1.81235 -1.17066
lowerneck -22.2558 -6.23559 -11.2646
upperneck 26.507 -7.69741 8.30096
head 13.447 -3.51523 3.72796
rclavicle -1.38342e-014 -6.95746e-016
rhumerus -27.1179 -9.64739 -83.6302
rradius 36.3048
rwrist 2.79257
rhand -16.8238 10.4896
rfingers 7.12502
rthumb 9.40532 -19.2805
lclavicle -1.38342e-014 -6.95746e-016
lhumerus -36.2185 8.67512 82.7834
lradius 26.297
lwrist -11.1517
lhand -14.9557 24.2266
lfingers 7.12502
lthumb 11.2075 53.9072
rfemur 12.7114 3.3837 24.5856
rtibia 25.6258
rfoot -10.3011 -4.18691
rtoes -6.22811
lfemur -17.3242 -0.285776 -19.7674
ltibia 15.3764
lfoot 3.41856 -2.93869
ltoes -4.15151
462
root -9.37131 17.7924 13.0355 -9.90626 -94.2102 8.95883
lowerback 10.2515 2.71635 0.914899
upperback 0.57587 3.6751 -0.23109
thorax -5.06827 1.77619 -1.282
lowerneck -22.172 -6.14775 -11.1799
upperneck 26.6372 -7.59846 8.20854
head 13.4628 -3.48135 3.69961
rclavicle -5.01931e-014 -2.83268e-015
rhumerus -27.4921 -10.4532 -83.6429
rradius 36.0682
rwrist 3.18492
rhand -16.6919 10.5937
rfingers 7.12502
rthumb 9.53258 -19.1706
lclavicle -5.01931e-014 -2.83268e-015
lhumerus -36.2983 8.86869 82.5585
lradius 26.2836
lwrist -11.383
lhand -15.171 24.5834
lfingers 7.12502
lthumb 10.9998 54.2752
rfemur 11.9548 2.87163 24.3037
rtibia 27.804
rfoot -9.06246 -3.6406
rtoes -6.35444
lfemur -16.6543 -0.0173018 -19.9491
ltibia 15.2393
lfoot 3.35726 -3.12236
ltoes -6.13523
463
root -9.52507 17.8165 13.0569 -7.83029 -94.0766 6.85416
lowerback 10.1695 2.66659 0.896147
upperback 0.566968 3.60228 -0.315199
thorax -5.02921 1.74061 -1.34453
lowerneck -22.118 -6.08737 -11.1315
upperneck 26.7497 -7.49855 8.0568
head 13.4765 -3.45674 3.65278
rclavicle 9.96408e-015 7.95139e-016
rhumerus -27.8811 -11.0981 -83.569
rradius 35.8947
rwrist 3.50822
rhand -16.4601 10.6327
rfingers 7.12502
rthumb 9.75626 -19.1213
lclavicle 9.96408e-015 7.95139e-016
lhumerus -36.293 8.85526 82.5158
lradius 26.248
lwrist -11.3774
lhand -15.5007 25.2397
lfingers 7.12502
lthumb 10.6818 54.9482
rfemur 11.0746 2.561 23.9468
rtibia 30.1157
rfoot -7.57513 -3.4054
rtoes -5.5412
lfemur -16.0274 0.40566 -20.3319
ltibia 15.0612
lfoot 3.33597 -3.59441
ltoes -5.27036
464
root -9.67873 17.8403 13.0793 -4.89689 -93.9304 3.85693
lowerback 10.0994 2.57778 0.782594
upperback 0.582027 3.46597 -0.402189
thorax -4.97908 1.67572 -1.34822
lowerneck -22.1101 -5.99361 -11.0499
upperneck 26.8793 -7.38859 7.99416
head 13.5084 -3.41212 3.63808
rclavicle -2.63079e-014 2.48481e-016
rhumerus -28.1953 -11.4819 -83.57
rradius 35.6437
rwrist 3.71871
rhand -16.1681 10.5984
rfingers 7.12502
rthumb 10.0379 -19.1422
lclavicle -2.63079e-014 2.48481e-016
lhumerus -36.2728 9.06435 82.3677
lradius 26.2058
lwrist -11.4804
lhand -15.9944 25.4677
lfingers 7.12502
lthumb 10.2056 55.2001
rfemur 10.103 2.15165 23.4704
rtibia 32.5227
rfoot -5.60506 -3.17155
rtoes -4.18179
lfemur -15.3583 0.638561 -20.7511
ltibia 14.8944
lfoot 3.32415 -4.04905
ltoes -3.08418
465
root -9.83399 17.8633 13.1047 -2.87721 -93.8977 1.68845
lowerback 10.1104 2.51795 0.795856
upperback 0.622719 3.38221 -0.48816
thorax -4.93867 1.63341 -1.43252
lowerneck -22.2184 -5.92222 -11.0525
upperneck 27.1646 -7.3208 8.04841
head 13.645 -3.37909 3.67911
rclavicle -5.62188e-015 4.37326e-015
rhumerus -28.4916 -11.9556 -83.586
rradius 35.3767
rwrist 4.00168
rhand -15.8587 10.5012
rfingers 7.12502
rthumb 10.3364 -19.2248
lclavicle -5.62188e-015 4.37326e-015
lhumerus -36.2463 9.2879 82.1945
lradius 26.1958
lwrist -11.6121
lhand -16.1653 25.4682
lfingers 7.12502
lthumb 10.0407 55.2087
rfemur 9.10426 1.63048 22.9338
rtibia 34.9963
rfoot -3.23232 -2.71056
rtoes -2.75309
lfemur -14.5402 0.654562 -21.0716
ltibia 14.7217
lfoot 3.11134 -4.24795
ltoes -1.9123
466
root -9.98588 17.886 13.1297 -2.36431 -93.9968 1.00896
lowerback 10.2132 2.53231 0.862985
upperback 0.624132 3.40843 -0.499792
thorax -4.9893 1.64383 -1.49107
lowerneck -22.2145 -5.88678 -11.0834
upperneck 27.4104 -7.28119 8.02921
head 13.7437 -3.37367 3.69009
rclavicle -7.71533e-015 1.68967e-015
rhumerus -28.9059 -12.2999 -83.4901
rradius 35.1894
rwrist 4.12717
rhand -15.7109 10.3936
rfingers 7.12502
rthumb 10.4791 -19.3252
lclavicle -7.71533e-015 1.68967e-015
lhumerus -36.2683 9.46763 82.076
lradius 26.1714
lwrist -11.9605
lhand -15.7955 25.3669
lfingers 7.12502
lthumb 10.3974 55.0898
rfemur 7.98978 1.33852 22.5595
rtibia 37.538
rfoot -0.590015 -2.39016
rtoes 0.134435
lfemur -13.6827 0.843418 -21.2987
ltibia 14.4867
lfoot 2.74304 -4.48333
ltoes -2.65068
